<svg xmlns="http://www.w3.org/2000/svg" fill="none" viewBox="0 0 144 145">
  <mask id="KtMH3C0M57Za" style="mask-type:alpha" maskUnits="userSpaceOnUse" x="0" y="0" width="144" height="145">
    <ellipse cx="71.615" cy="72.132" rx="71.615" ry="72.132" fill="#C4C4C4"/>
  </mask>
  <g mask="url(#KtMH3C0M57Za)" fill="#fff">
    <path d="M55.1 148.041c-14.971 0-29.942-.081-44.92.056-3.965.041-4.378-1.969-2.962-4.692a47.005 47.005 0 002.16-5.325c.422-1.143.244-1.37-.954-1.459-.607-.04-1.214 0-1.829 0-1.214 0-2.428.049-3.658 0-2.524-.097-3.301-1.507-1.934-3.566 1.012-1.524 2.145-2.966 3.237-4.441 1.845-2.513 1.522-2.148.227-4.312-1.125-1.864-2.282-3.704-3.399-5.576-1.303-2.196-1.092-2.975 1.133-4.117 2.088-1.07 4.168-2.172 6.328-3.088 1.538-.657 2.347-1.475 2.258-3.299a29.773 29.773 0 01.453-5.227c.243-1.929 1.675-2.667 3.383-1.621 1.934 1.167 3.77 2.496 5.664 3.793.81.535 1.173.51 1.44-.511a251.756 251.756 0 012.258-8.04c.259-.867.25-1.353-.866-1.207-2.063.267-4.143.478-6.206.737-1.101.138-2.145.097-2.784-.94-.64-1.037-.267-1.986.324-2.934 1.06-1.694 2.023-3.46 3.099-5.146a2.126 2.126 0 00-.146-2.829c-1.53-1.896-2.978-3.858-4.402-5.843-1.618-2.23-1.432-2.959.81-4.377a234.23 234.23 0 016.675-4.093 2.089 2.089 0 001.19-2.09c-.09-1.833-.09-3.664-.09-5.496 0-2.86 1.158-3.558 3.788-2.261 2.104 1.045 4.167 2.172 6.255 3.242 1.772.916 1.805.924 2.598-.81.542-1.176 1.618-2.602 1.295-3.534-.324-.932-2.032-1.394-3.164-2.002-1.457-.81-2.954-1.491-4.41-2.278-2.275-1.24-2.331-2.998-.122-4.279 2.031-1.175 4.046-2.326 6.174-3.404a2.34 2.34 0 001.416-2.488c-.097-2.091 0-4.182 0-6.273a13.86 13.86 0 01.09-2.091c.266-1.734.809-2.286 2.597-2.196 2.695.13 5.39.3 8.052.697a2.497 2.497 0 002.84-1.184c.914-1.377 1.902-2.707 2.88-4.052 1.87-2.545 3.294-2.431 4.662.535.85 1.807 1.675 3.63 2.427 5.487.43 1.062.963 1.215 2 .745a49.122 49.122 0 0115.56-4.1c11.523-1.087 22.602 0 32.369 7.075a39.47 39.47 0 0115.148 21.623c.413 1.419.81 2.845 1.182 4.271.882 3.453-.405 6.436-3.65 7.651a4.279 4.279 0 00-2.605 2.61c-.559 1.28-1.141 2.545-1.797 3.777-1.052 2.002-2.063 2.431-3.674.972-1.974-1.758-3.657-1.912-5.664-.186a2.994 2.994 0 01-2.124.889 2.976 2.976 0 01-2.125-.89c-2.217-1.977-4.466-1.823-6.837-.404-.3.178-.648.267-.947.445-1.853 1.086-3.569 1.151-5.163-.534-.81-.86-1.707-1.103-2.59 0a5.58 5.58 0 01-1.189 1.02c-1.173.852-1.966.957-3.002-.089-1.036-1.045-2.266-1.499-3.715-.883-1.448.616-2.67.122-3.738-.98-1.068-1.103-2.136-2.051-3.196-3.08a8.001 8.001 0 00-4.127-2.432c-3.448-.713-5.665-5.317-4.41-8.59a2.058 2.058 0 011.974-1.443 1.972 1.972 0 011.958 1.742c.038.434.051.87.04 1.305.122 2.683.567 3.096 3.335 3.12h3.398c14.097 0 28.201-.056 42.306 0 3.552 0 4.095-1.24 3.285-4.222-1.683-6.233-4.11-12.02-8.472-16.866-5.543-6.168-12.308-10.285-20.538-11.476-11.167-1.621-22.067-.624-32.223 4.733-12.049 6.354-20.23 16.023-24.09 29.177-4.127 14.2-7.963 28.488-12.138 42.671-1.424 4.863-3.545 9.442-5.398 14.135-1.853 4.692-3.82 9.531-5.729 14.296-.898 2.245-.89 2.27 1.465 2.27h82.531c2.752 0 2.792 0 2.048-2.578a76.634 76.634 0 01-3.027-25.27c.194-3.817.81-7.61 1.238-11.412.128-1.472.341-2.936.64-4.384a10.02 10.02 0 013.567-5.912 9.992 9.992 0 016.54-2.193c1.828 0 3.665.049 5.486-.049a15.235 15.235 0 003.585-.55 3.77 3.77 0 001.796-1.362c.81-1.127.486-1.71-.914-1.71H77.895c-.61.028-1.223.004-1.829-.073a2.039 2.039 0 01-1.783-2.026 2.045 2.045 0 011.783-2.027 9.067 9.067 0 011.562-.056h43.39c1.546.121 2.209.72 2.428 2.188a8.482 8.482 0 01-4.225 8.348 12.718 12.718 0 01-6.036 1.41h-5.746c-3.237.073-5.826 2.058-6.214 5.236-.713 5.956-1.78 11.881-1.756 17.927a72.558 72.558 0 003.625 22.855c.164.676.375 1.34.631 1.986 1.262 2.496-.332 3.89-2.873 3.866-15.278-.089-30.54-.032-45.753-.032z"/>
    <path d="M84.652 44.122c3.18.705 6.992 1.24 10.6 2.431 6.879 2.27 10.876 7.473 13.069 14.192a2.007 2.007 0 01-1.173 2.796c-1.044.421-1.95 0-2.654-1.443-.389-.77-.631-1.62-.996-2.431-.493-1.07-.655-1.11-1.278-.17a8.652 8.652 0 01-4.815 3.76c-3.237.949-6.012.04-8.36-2.245-2.346-2.285-3.082-5.349-2.346-8.631.194-.667.44-1.318.737-1.945.493-1.224.428-1.394-.899-1.694-1.092-.252-2.225-.365-3.317-.649a1.843 1.843 0 01-1.604-1.505 1.85 1.85 0 01.026-.78c.17-1.167 1.116-1.856 3.01-1.686zm10.422 16.104a4.269 4.269 0 003.018-1.124 4.282 4.282 0 00-2.54-7.418 4.267 4.267 0 00-4.186 2.384 4.282 4.282 0 003.709 6.158z"/>
  </g>
</svg>
