<svg xmlns="http://www.w3.org/2000/svg" fill="none" viewBox="0 0 25 25">
  <mask id="aYTzied9bWRa" style="mask-type:alpha" maskUnits="userSpaceOnUse" x="0" y="0" width="25" height="25">
    <ellipse cx="12.363" cy="12.452" rx="12.363" ry="12.452" fill="#C4C4C4"/>
  </mask>
  <g mask="url(#aYTzied9bWRa)" fill="#fff">
    <path d="M9.511 25.555c-2.584 0-5.168-.014-7.754.01-.684.007-.755-.34-.511-.81.143-.299.268-.605.373-.92.073-.197.042-.236-.165-.251-.105-.007-.21 0-.316 0-.21 0-.419.008-.63 0-.437-.017-.57-.26-.335-.616.175-.263.37-.512.559-.766.318-.434.263-.371.04-.745-.195-.321-.395-.639-.588-.962-.225-.38-.188-.514.196-.71.36-.186.72-.376 1.092-.534.266-.113.405-.255.39-.57 0-.302.026-.604.078-.902.042-.333.29-.46.584-.28.334.202.651.431.978.655.14.093.203.088.249-.088.121-.464.252-.928.39-1.388.044-.15.043-.233-.15-.208-.356.046-.715.082-1.072.127-.19.024-.37.017-.48-.162-.11-.18-.046-.343.056-.507.183-.292.35-.597.535-.888a.367.367 0 00-.025-.488 22.434 22.434 0 01-.76-1.01c-.28-.384-.247-.51.14-.755.386-.245.764-.478 1.152-.706a.36.36 0 00.205-.361c-.015-.316-.015-.633-.015-.949 0-.494.2-.614.654-.39.363.18.719.375 1.08.56.305.158.31.16.448-.14.093-.203.28-.45.223-.61-.056-.161-.35-.24-.546-.346-.251-.14-.51-.257-.761-.393-.393-.214-.402-.518-.021-.739.35-.203.698-.401 1.066-.587a.404.404 0 00.244-.43c-.017-.36 0-.722 0-1.083-.004-.12.001-.24.016-.36.046-.3.14-.395.448-.38.465.023.93.052 1.39.12a.431.431 0 00.49-.204c.158-.238.328-.467.497-.7.323-.439.569-.419.805.093.147.312.29.627.42.947.073.184.165.21.344.129a8.48 8.48 0 012.686-.708c1.99-.187 3.902 0 5.588 1.221a6.813 6.813 0 012.615 3.733c.071.245.14.491.204.737.152.596-.07 1.111-.63 1.321a.739.739 0 00-.45.45 9.3 9.3 0 01-.31.653c-.182.345-.356.42-.634.168-.341-.304-.632-.33-.978-.033a.516.516 0 01-.733 0c-.383-.341-.772-.315-1.18-.07-.053.031-.113.046-.164.077-.32.188-.616.199-.891-.092-.14-.148-.295-.19-.447 0a.964.964 0 01-.206.176c-.202.147-.34.165-.518-.015-.179-.18-.391-.259-.641-.153-.25.107-.461.021-.646-.169-.184-.19-.368-.354-.551-.532a1.382 1.382 0 00-.713-.42c-.595-.122-.978-.917-.761-1.482a.355.355 0 01.34-.25.34.34 0 01.339.302c.006.074.009.15.007.225.02.463.098.534.575.538h.587c2.433 0 4.868-.01 7.303 0 .613 0 .707-.214.567-.729-.29-1.075-.71-2.074-1.462-2.911-.957-1.065-2.125-1.775-3.546-1.981-1.928-.28-3.81-.108-5.562.817-2.08 1.097-3.492 2.766-4.159 5.037-.712 2.45-1.374 4.917-2.095 7.366-.246.84-.612 1.63-.932 2.44-.32.81-.66 1.645-.989 2.468-.155.387-.153.391.253.391h14.247c.475 0 .482 0 .353-.445a13.228 13.228 0 01-.522-4.362c.034-.659.14-1.314.214-1.97a6.55 6.55 0 01.11-.757 1.73 1.73 0 011.745-1.399c.315 0 .633.009.947-.008.21-.007.417-.039.619-.095a.65.65 0 00.31-.235c.14-.195.084-.295-.158-.295h-6.808a1.82 1.82 0 01-.316-.013.352.352 0 010-.7c.09-.01.18-.014.27-.01h7.489c.267.022.382.125.42.378a1.465 1.465 0 01-.73 1.441c-.322.166-.68.25-1.042.244h-.991c-.56.012-1.006.355-1.073.904-.123 1.028-.308 2.05-.303 3.094-.004 1.34.207 2.673.625 3.946.029.116.065.23.11.342.217.431-.058.672-.497.668-2.637-.016-5.271-.006-7.898-.006z"/>
    <path d="M14.613 7.616c.549.122 1.207.214 1.83.42 1.187.392 1.877 1.29 2.256 2.45a.349.349 0 01-.203.482c-.18.073-.336 0-.458-.248-.067-.133-.109-.28-.172-.42-.085-.185-.113-.192-.22-.03a1.5 1.5 0 01-.832.65c-.558.163-1.037.007-1.443-.388-.405-.395-.532-.923-.405-1.49a2.39 2.39 0 01.127-.336c.086-.211.074-.24-.155-.292-.188-.044-.384-.063-.572-.112a.318.318 0 01-.273-.395c.03-.201.193-.32.52-.29zm1.8 2.78a.737.737 0 00.578-1.223.737.737 0 10-.864 1.157.76.76 0 00.285.066z"/>
  </g>
</svg>
