<svg xmlns="http://www.w3.org/2000/svg" fill="none" viewBox="0 0 70 70">
  <mask id="Y1ahp6QlH_Xa" style="mask-type:alpha" maskUnits="userSpaceOnUse" x="0" y="0" width="70" height="70">
    <ellipse cx="34.709" cy="34.959" rx="34.709" ry="34.959" fill="#C4C4C4"/>
  </mask>
  <g mask="url(#Y1ahp6QlH_Xa)" fill="#fff">
    <path d="M26.704 71.748c-7.255 0-14.51-.039-21.77.028-1.922.02-2.122-.955-1.436-2.275.402-.838.751-1.7 1.047-2.58.204-.554.118-.664-.462-.707-.295-.02-.589 0-.887 0-.588 0-1.176.023-1.772 0-1.224-.047-1.6-.73-.938-1.728.49-.739 1.04-1.438 1.569-2.153.894-1.218.737-1.041.11-2.09-.545-.903-1.106-1.795-1.647-2.702-.632-1.065-.53-1.442.549-1.996 1.012-.518 2.02-1.052 3.067-1.496.745-.318 1.137-.715 1.094-1.599-.002-.85.072-1.697.22-2.533.117-.935.811-1.293 1.639-.786.937.566 1.827 1.21 2.745 1.838.392.26.569.248.698-.247.341-1.304.71-2.604 1.094-3.897.126-.42.122-.656-.42-.585-1 .13-2.007.232-3.007.357-.534.067-1.04.048-1.35-.455-.31-.503-.129-.963.157-1.422.514-.821.98-1.677 1.503-2.494a1.03 1.03 0 00-.071-1.371 62.768 62.768 0 01-2.134-2.832c-.784-1.08-.694-1.434.393-2.121a113.768 113.768 0 013.235-1.984 1.013 1.013 0 00.577-1.013c-.043-.888-.043-1.776-.043-2.664 0-1.386.56-1.724 1.835-1.096 1.02.507 2.02 1.053 3.032 1.572.858.444.874.448 1.259-.393.262-.57.784-1.261.627-1.713-.157-.451-.984-.675-1.533-.97-.706-.393-1.432-.723-2.138-1.104-1.102-.6-1.13-1.453-.059-2.074a60.99 60.99 0 012.993-1.65 1.134 1.134 0 00.686-1.205c-.047-1.014 0-2.027 0-3.04a6.728 6.728 0 01.043-1.014c.13-.84.392-1.108 1.26-1.064 1.305.063 2.611.145 3.901.337a1.21 1.21 0 001.377-.573c.443-.668.922-1.312 1.396-1.964.906-1.233 1.596-1.178 2.26.26.41.875.811 1.759 1.176 2.658.207.515.466.59.968.362a23.805 23.805 0 017.542-1.988c5.585-.526 10.954 0 15.688 3.43a19.129 19.129 0 017.341 10.48c.2.687.393 1.378.573 2.07.427 1.672-.196 3.118-1.769 3.707a2.076 2.076 0 00-1.263 1.265c-.27.62-.553 1.233-.87 1.83-.51.97-1 1.179-1.78.472-.958-.852-1.773-.927-2.746-.09a1.447 1.447 0 01-2.06 0c-1.074-.959-2.164-.884-3.313-.197-.145.087-.314.13-.459.216-.898.526-1.73.558-2.502-.26-.392-.416-.828-.533-1.255 0a2.703 2.703 0 01-.577.496c-.568.412-.953.463-1.455-.043-.502-.507-1.098-.727-1.8-.428-.702.298-1.294.058-1.812-.476-.517-.534-1.035-.994-1.549-1.492a3.878 3.878 0 00-2-1.179c-1.67-.346-2.745-2.577-2.137-4.164a.998.998 0 01.956-.699.956.956 0 01.95.845c.018.21.025.421.02.632.058 1.3.274 1.5 1.615 1.513h1.647c6.832 0 13.668-.028 20.504 0 1.721 0 1.984-.602 1.592-2.047-.816-3.02-1.992-5.825-4.106-8.174-2.687-2.99-5.965-4.985-9.954-5.562-5.412-.786-10.695-.303-15.617 2.294-5.84 3.08-9.804 7.765-11.675 14.14-2 6.882-3.86 13.807-5.883 20.681-.69 2.357-1.718 4.576-2.616 6.85-.898 2.275-1.851 4.62-2.777 6.93-.435 1.088-.431 1.1.71 1.1h40c1.333 0 1.353 0 .992-1.25a37.142 37.142 0 01-1.467-12.247c.094-1.85.392-3.688.6-5.53.062-.714.165-1.424.31-2.126a4.856 4.856 0 011.729-2.865 4.843 4.843 0 013.17-1.063c.886 0 1.776.024 2.658-.023a7.462 7.462 0 001.738-.267c.35-.126.654-.356.87-.66.392-.546.236-.829-.443-.829H37.752a5.119 5.119 0 01-.886-.035.988.988 0 01-.864-.982.99.99 0 01.864-.982c.25-.031.504-.04.757-.028h21.029c.749.06 1.07.35 1.176 1.06a4.11 4.11 0 01-2.047 4.046 6.163 6.163 0 01-2.926.684h-2.784c-1.569.035-2.824.998-3.012 2.538-.345 2.887-.863 5.758-.851 8.688a35.165 35.165 0 001.757 11.077c.08.328.181.65.306.962.611 1.21-.161 1.886-1.393 1.874-7.404-.043-14.8-.016-22.174-.016z"/>
    <path d="M41.027 21.384c1.541.342 3.388.6 5.137 1.178 3.334 1.1 5.271 3.622 6.334 6.878a.975.975 0 01-.569 1.355c-.505.204-.945 0-1.286-.699-.188-.373-.306-.785-.482-1.178-.24-.519-.318-.538-.62-.083a4.194 4.194 0 01-2.333 1.823c-1.57.46-2.914.02-4.052-1.088-1.137-1.108-1.494-2.593-1.137-4.183a6.37 6.37 0 01.357-.943c.24-.593.208-.676-.435-.821-.53-.122-1.079-.177-1.608-.314a.895.895 0 01-.765-1.108c.082-.566.541-.9 1.459-.817zm5.051 7.805a2.069 2.069 0 002.13-1.957 2.077 2.077 0 00-1.898-2.183 2.068 2.068 0 00-2.237 1.95 2.076 2.076 0 002.005 2.19z"/>
  </g>
</svg>
