<svg xmlns="http://www.w3.org/2000/svg" fill="none" viewBox="0 0 32 32">
  <mask id="1l5mi6Vo2_ca" style="mask-type:alpha" maskUnits="userSpaceOnUse" x="0" y="0" width="32" height="32">
    <ellipse cx="15.515" cy="15.627" rx="15.515" ry="15.627" fill="#C4C4C4"/>
  </mask>
  <g mask="url(#1l5mi6Vo2_ca)" fill="#fff">
    <path d="M11.937 32.072c-3.243 0-6.487-.017-9.732.012-.859.01-.948-.426-.641-1.016.18-.375.335-.76.468-1.154.091-.247.052-.297-.207-.316-.132-.009-.263 0-.396 0-.263 0-.526.01-.793 0-.547-.02-.715-.326-.419-.772.22-.33.465-.643.702-.963.4-.544.33-.465.049-.934-.244-.403-.495-.802-.737-1.208-.282-.476-.236-.644.246-.892.452-.231.903-.47 1.37-.669.334-.142.51-.32.49-.714 0-.38.032-.759.098-1.133.053-.418.363-.577.733-.35.419.252.817.54 1.227.82.175.117.254.111.312-.11a54.57 54.57 0 01.49-1.742c.055-.188.054-.293-.188-.261-.447.058-.898.103-1.345.16-.238.03-.465.02-.603-.204-.139-.225-.058-.43.07-.636.23-.367.438-.75.671-1.115a.46.46 0 00-.031-.613c-.331-.41-.645-.835-.954-1.265-.35-.483-.31-.641.176-.949.485-.307.958-.6 1.446-.886a.453.453 0 00.258-.453c-.02-.397-.02-.794-.02-1.19 0-.62.251-.772.82-.49.457.226.904.47 1.356.702.384.198.39.2.563-.176.117-.255.35-.563.28-.765-.07-.202-.44-.302-.685-.434-.316-.176-.64-.323-.956-.493-.492-.27-.505-.65-.026-.928.44-.254.876-.504 1.338-.737a.507.507 0 00.306-.54c-.02-.452 0-.905 0-1.358a3.003 3.003 0 01.02-.453c.057-.376.175-.495.562-.476A17.53 17.53 0 0110 7.522a.541.541 0 00.615-.256c.198-.299.412-.587.624-.878.405-.552.714-.527 1.01.116.184.391.363.786.526 1.188.093.23.208.264.433.162a10.63 10.63 0 013.371-.889c2.497-.235 4.897 0 7.013 1.533a8.551 8.551 0 013.281 4.685c.09.307.176.616.256.925.191.748-.087 1.394-.79 1.658a.927.927 0 00-.565.565c-.12.277-.247.551-.389.818-.228.434-.447.527-.796.211-.428-.381-.792-.414-1.227-.04a.646.646 0 01-.92 0c-.48-.429-.968-.395-1.482-.088-.065.038-.14.058-.205.096-.401.236-.773.25-1.118-.116-.176-.186-.37-.238-.561 0-.076.086-.162.16-.258.222-.254.184-.426.207-.65-.02-.225-.226-.491-.324-.805-.19-.314.133-.579.025-.81-.213-.232-.24-.463-.445-.693-.668a1.733 1.733 0 00-.894-.526c-.747-.155-1.227-1.152-.955-1.861a.446.446 0 01.428-.313.427.427 0 01.424.377c.008.094.01.189.009.283.026.581.122.67.722.676h.736c3.054 0 6.11-.012 9.165 0 .77 0 .887-.268.712-.915-.364-1.35-.89-2.604-1.835-3.654-1.201-1.336-2.667-2.228-4.45-2.486-2.419-.351-4.78-.135-6.98 1.026-2.611 1.376-4.383 3.47-5.22 6.32-.894 3.077-1.725 6.172-2.63 9.245-.308 1.053-.767 2.046-1.169 3.062-.401 1.017-.827 2.065-1.24 3.097-.195.487-.194.492.317.492h17.88c.596 0 .604 0 .443-.558a16.604 16.604 0 01-.656-5.475c.042-.827.176-1.649.269-2.472.027-.32.073-.636.138-.95a2.17 2.17 0 012.19-1.756c.396 0 .794.01 1.188-.01.263-.01.524-.05.777-.12a.817.817 0 00.39-.295c.175-.244.104-.37-.199-.37h-8.545a2.271 2.271 0 01-.396-.016.441.441 0 010-.878c.112-.014.226-.018.338-.012h9.401c.335.026.478.156.526.474a1.839 1.839 0 01-.916 1.808 2.755 2.755 0 01-1.307.306h-1.245c-.701.016-1.262.446-1.346 1.134-.155 1.29-.386 2.574-.38 3.884-.006 1.682.26 3.354.785 4.951.035.147.08.29.136.43.274.541-.072.843-.622.838-3.31-.02-6.616-.007-9.912-.007z"/>
    <path d="M18.34 9.559c.688.152 1.514.268 2.296.526 1.49.492 2.356 1.62 2.831 3.075a.436.436 0 01-.254.606c-.226.091-.423 0-.575-.313-.084-.167-.137-.351-.216-.527-.107-.231-.142-.24-.277-.037a1.87 1.87 0 01-1.043.815c-.701.206-1.302.009-1.81-.486-.51-.495-.669-1.159-.51-1.87a2.84 2.84 0 01.16-.421c.107-.266.093-.303-.194-.367-.237-.055-.482-.08-.72-.14a.4.4 0 01-.34-.496c.036-.253.241-.402.651-.365zm2.257 3.489a.924.924 0 00.952-.875.928.928 0 00-1.213-.933.925.925 0 00-.582 1.193.927.927 0 00.843.614z"/>
  </g>
</svg>
