<svg xmlns="http://www.w3.org/2000/svg" fill="none" viewBox="0 0 37 37">
  <mask id="EqNzt87wX5ca" style="mask-type:alpha" maskUnits="userSpaceOnUse" x="0" y="0" width="37" height="37">
    <ellipse cx="18.107" cy="18.237" rx="18.107" ry="18.237" fill="#C4C4C4"/>
  </mask>
  <g mask="url(#EqNzt87wX5ca)" fill="#fff">
    <path d="M13.93 37.43c-3.784 0-7.57-.021-11.356.014-1.003.01-1.107-.498-.749-1.187.21-.437.392-.886.546-1.346.107-.289.062-.346-.241-.369-.154-.01-.307 0-.463 0-.306 0-.613.012-.924 0-.639-.024-.835-.381-.49-.901.256-.386.543-.75.82-1.123.466-.636.384-.543.056-1.09-.284-.472-.577-.937-.859-1.41-.33-.556-.276-.752.286-1.041.528-.27 1.054-.55 1.6-.781.39-.166.594-.373.571-.834 0-.443.038-.885.115-1.322.061-.487.423-.674.855-.41.489.296.953.632 1.432.96.205.135.297.129.364-.13.178-.68.37-1.358.571-2.032.066-.22.064-.343-.219-.306-.521.068-1.047.121-1.569.187-.278.035-.542.024-.704-.238-.161-.262-.067-.502.082-.742.268-.428.512-.875.784-1.3a.538.538 0 00-.037-.716c-.387-.48-.753-.975-1.113-1.477-.41-.564-.362-.748.204-1.107.567-.358 1.12-.7 1.688-1.035a.528.528 0 00.301-.528c-.022-.463-.022-.927-.022-1.39 0-.723.292-.9.957-.572.532.265 1.054.55 1.582.82.448.232.456.234.656-.205.137-.297.41-.658.328-.893-.082-.236-.514-.353-.8-.506-.369-.205-.747-.377-1.115-.576-.575-.314-.59-.758-.031-1.082a31.717 31.717 0 011.561-.86.592.592 0 00.358-.63c-.024-.528 0-1.057 0-1.586a3.505 3.505 0 01.023-.528c.067-.439.204-.578.656-.556.682.033 1.363.076 2.036.176a.631.631 0 00.718-.299c.231-.348.481-.684.729-1.024.472-.644.832-.615 1.178.135.215.457.424.918.614 1.387.108.269.243.308.505.189a12.42 12.42 0 013.935-1.037c2.913-.275 5.714 0 8.183 1.789a9.979 9.979 0 013.83 5.467c.105.358.205.72.3 1.08.222.873-.103 1.627-.924 1.934a1.084 1.084 0 00-.658.66 13.91 13.91 0 01-.455.955c-.266.506-.521.615-.928.246-.5-.445-.925-.484-1.433-.047a.755.755 0 01-1.074 0c-.56-.5-1.13-.461-1.729-.103-.075.045-.163.068-.239.113-.469.274-.902.29-1.305-.135-.205-.218-.432-.28-.655 0-.088.1-.189.186-.3.258-.297.215-.498.242-.76-.023-.262-.264-.573-.379-.939-.223s-.675.03-.945-.248c-.27-.279-.54-.518-.808-.779a2.022 2.022 0 00-1.044-.614c-.871-.18-1.432-1.345-1.115-2.172a.521.521 0 01.5-.365.499.499 0 01.495.44c.01.11.012.22.01.33.03.678.143.783.843.79h.859c3.564 0 7.13-.015 10.696 0 .898 0 1.035-.314.83-1.069-.425-1.575-1.038-3.038-2.141-4.264-1.402-1.56-3.112-2.6-5.193-2.901-2.823-.41-5.58-.158-8.147 1.196-3.046 1.607-5.115 4.051-6.09 7.377-1.044 3.59-2.014 7.203-3.07 10.789-.36 1.23-.896 2.387-1.364 3.574-.469 1.186-.966 2.41-1.449 3.614-.227.568-.225.574.37.574h20.867c.696 0 .706 0 .518-.652a19.376 19.376 0 01-.765-6.389c.049-.965.204-1.924.313-2.885a9.65 9.65 0 01.161-1.109 2.534 2.534 0 012.556-2.049c.462 0 .927.013 1.387-.012.306-.01.61-.057.906-.14a.954.954 0 00.454-.343c.205-.285.123-.433-.23-.433h-9.974a2.743 2.743 0 01-.462-.018.516.516 0 010-1.025c.13-.016.263-.02.395-.014h10.971c.391.03.559.182.614.553a2.145 2.145 0 01-1.068 2.11 3.217 3.217 0 01-1.526.357h-1.453c-.818.019-1.473.52-1.571 1.324-.18 1.506-.45 3.004-.444 4.533a18.345 18.345 0 00.916 5.778c.042.171.095.339.16.502.32.631-.084.984-.726.978-3.863-.023-7.722-.009-11.568-.009z"/>
    <path d="M21.403 11.155c.804.179 1.767.314 2.68.615 1.739.574 2.75 1.89 3.304 3.588a.508.508 0 01-.297.707c-.264.107-.493 0-.67-.365-.099-.194-.16-.41-.252-.614-.125-.27-.166-.281-.324-.043a2.19 2.19 0 01-1.217.95c-.818.24-1.52.01-2.113-.567-.594-.578-.78-1.353-.594-2.182a3.43 3.43 0 01.186-.492c.125-.31.109-.353-.227-.429-.276-.063-.562-.092-.838-.163a.465.465 0 01-.4-.578c.044-.295.283-.47.762-.427zm2.635 4.072a1.079 1.079 0 001.111-1.02 1.083 1.083 0 00-1.416-1.09 1.08 1.08 0 00-.68 1.393 1.083 1.083 0 00.985.717z"/>
  </g>
</svg>
