<svg xmlns="http://www.w3.org/2000/svg" fill="none" viewBox="0 0 32 28">
  <mask id="PVA7UimcNfa" style="mask-type:alpha" maskUnits="userSpaceOnUse" x="0" y="0" width="32" height="28">
    <ellipse cx="15.609" cy="13.849" rx="15.609" ry="13.849" fill="#C4C4C4"/>
  </mask>
  <g mask="url(#PVA7UimcNfa)" fill="#fff">
    <path d="M12.01 28.423c-3.264 0-6.527-.015-9.791.011-.864.008-.954-.378-.646-.9a8.57 8.57 0 00.471-1.023c.092-.22.053-.263-.208-.28-.132-.008-.265 0-.399 0-.264 0-.529.01-.797 0-.55-.019-.72-.29-.421-.685.22-.293.467-.57.705-.853.402-.482.332-.412.05-.828-.246-.357-.498-.71-.741-1.07-.284-.422-.238-.571.247-.79.455-.206.908-.418 1.379-.593.335-.127.511-.284.492-.634 0-.336.032-.672.099-1.003.053-.37.365-.512.737-.312.422.224.822.48 1.235.729.176.102.255.098.314-.098a42.55 42.55 0 01.492-1.544c.056-.166.054-.26-.189-.232-.45.051-.903.092-1.353.142-.24.026-.467.018-.607-.18-.139-.2-.058-.382.071-.564.231-.325.441-.665.676-.988a.377.377 0 00.101-.277.387.387 0 00-.133-.266c-.334-.364-.65-.741-.96-1.122-.352-.428-.312-.568.177-.84.488-.273.964-.533 1.455-.786a.438.438 0 00.201-.165.363.363 0 00.058-.237c-.02-.351-.02-.703-.02-1.055 0-.55.253-.683.826-.434.459.2.908.417 1.363.623.387.175.394.177.567-.156.118-.226.352-.5.282-.678-.07-.18-.443-.268-.69-.385-.317-.155-.644-.286-.961-.437-.496-.238-.508-.576-.026-.822.442-.225.881-.446 1.345-.653a.495.495 0 00.247-.193.406.406 0 00.062-.285c-.021-.402 0-.803 0-1.204a2.348 2.348 0 01.02-.402c.058-.333.176-.439.565-.422.588.025 1.175.058 1.755.134a.613.613 0 00.354-.02.529.529 0 00.266-.207c.199-.264.414-.52.627-.778.408-.489.718-.467 1.016.103.185.347.365.697.53 1.053.093.204.21.234.435.143a11.874 11.874 0 013.392-.787c2.511-.209 4.926 0 7.055 1.358 1.608 1.009 2.774 2.475 3.302 4.152.09.272.176.546.257.82.192.663-.088 1.236-.795 1.469a.958.958 0 00-.349.194.817.817 0 00-.22.307 9.852 9.852 0 01-.39.725c-.23.384-.45.467-.802.187-.43-.338-.797-.367-1.234-.036a.66.66 0 01-.212.126.727.727 0 01-.502 0 .663.663 0 01-.212-.126c-.483-.38-.974-.35-1.49-.078-.066.035-.142.052-.207.086-.404.208-.778.22-1.125-.103-.177-.165-.372-.211-.565 0a1.189 1.189 0 01-.259.196c-.256.164-.428.184-.654-.017-.226-.2-.494-.288-.81-.17-.316.119-.582.024-.815-.188-.232-.211-.465-.393-.696-.591a1.805 1.805 0 00-.9-.467c-.751-.137-1.235-1.02-.961-1.65a.401.401 0 01.163-.2.49.49 0 01.553.02.368.368 0 01.141.238c.008.084.011.167.009.25.026.516.123.595.726.6h.741c3.073 0 6.147-.011 9.221 0 .774 0 .893-.238.716-.81-.367-1.197-.896-2.309-1.846-3.239-1.209-1.184-2.683-1.975-4.477-2.203-2.434-.312-4.81-.12-7.023.908-2.626 1.22-4.41 3.077-5.25 5.602-.9 2.726-1.736 5.47-2.646 8.193-.31.934-.773 1.813-1.177 2.714-.404.9-.832 1.83-1.248 2.745-.196.43-.195.435.319.435h17.988c.6 0 .609 0 .447-.495a13.065 13.065 0 01-.66-4.851c.042-.733.176-1.462.27-2.191.027-.283.074-.564.139-.842a1.9 1.9 0 01.778-1.135 2.374 2.374 0 011.425-.421c.398 0 .799.01 1.196-.01.264-.007.526-.043.781-.105a.82.82 0 00.392-.262c.176-.216.105-.328-.2-.328h-8.596c-.133.005-.267 0-.399-.014a.465.465 0 01-.277-.13.367.367 0 01-.111-.26.37.37 0 01.11-.258.465.465 0 01.278-.13c.113-.012.227-.016.34-.011h9.458c.337.023.481.138.529.42.042.317-.023.639-.187.924a1.733 1.733 0 01-.734.679 3.083 3.083 0 01-1.316.27h-1.252c-.705.015-1.27.396-1.354 1.006-.155 1.143-.388 2.281-.383 3.442-.005 1.49.262 2.972.79 4.388.036.13.082.257.138.381.275.48-.073.747-.626.742-3.33-.017-6.657-.006-9.973-.006z"/>
    <path d="M18.45 8.471c.694.136 1.524.238 2.311.467 1.5.436 2.37 1.435 2.849 2.725a.35.35 0 01-.096.454.454.454 0 01-.16.083c-.228.08-.425 0-.579-.277-.084-.148-.137-.312-.217-.467-.107-.205-.142-.213-.278-.033a1.869 1.869 0 01-1.05.722c-.705.182-1.31.008-1.822-.43-.511-.44-.672-1.028-.511-1.658.042-.128.096-.253.16-.374.108-.234.094-.267-.195-.325-.239-.048-.485-.07-.724-.124a.44.44 0 01-.16-.048.387.387 0 01-.124-.103.315.315 0 01-.06-.288c.037-.224.244-.356.657-.324zm2.272 3.092a.998.998 0 00.658-.216.787.787 0 00.3-.56.763.763 0 00-.227-.585.98.98 0 00-.627-.279 1.048 1.048 0 00-.366.038.968.968 0 00-.321.162.843.843 0 00-.225.258.745.745 0 00-.04.637.81.81 0 00.19.28c.084.08.186.145.299.191.113.046.235.07.36.074z"/>
  </g>
</svg>
